# xmcd
#
# Track frame offsets: 
#        150
#        25052
#        39679
#        59036
#        83183
#        100953
#        115445
#        132006
#        152904
#        168420
#        190749
#        206503
#        228636
#        240801
#        262894
#        287245
#        305969
#        314394
#        332363
#        349395
#
# Disc length: 4811 seconds
#
# Revision: 0
# Processed by: cddbd v1.5.2PL0 Copyright (c) Steve Scherf et al.
# Submitted via: ExactAudioCopyFreeDBPlugin 1.0
#
DISCID=2312c914
DTITLE=Pepe Ahlqvist - One Day Less, One Day More Anniversary Collecti
DTITLE=on Cd-1
DYEAR=2016
DGENRE=Blues
TTITLE0=One Day Less, One Day More
TTITLE1=Back To The River
TTITLE2=Ain't Doin' Too Bad
TTITLE3=Injun Woman
TTITLE4=Hard Time
TTITLE5=Big Chief
TTITLE6=Burn, Burn, Burn
TTITLE7=Bubble Struggle
TTITLE8=T's and B's (They Drive Me Nuts)
TTITLE9=Roll And Tumble Blues
TTITLE10=Big Pig Beat
TTITLE11=Sweet, Sweet Love
TTITLE12=Baby Please Don't Go
TTITLE13=Unfair World
TTITLE14=Small Timer
TTITLE15=Love In Vain
TTITLE16=Don't Let That Music Die
TTITLE17=Mean Old Rider
TTITLE18=Blues With A Feelin'
TTITLE19=Eyesight To The Blind
EXTD=
EXTT0=
EXTT1=
EXTT2=
EXTT3=
EXTT4=
EXTT5=
EXTT6=
EXTT7=
EXTT8=
EXTT9=
EXTT10=
EXTT11=
EXTT12=
EXTT13=
EXTT14=
EXTT15=
EXTT16=
EXTT17=
EXTT18=
EXTT19=
PLAYORDER=
